<svg width="14" height="14" viewBox="0 0 14 14" fill="none" xmlns="http://www.w3.org/2000/svg">
<path d="M14 11.431C14 11.683 13.9439 11.942 13.8247 12.194C13.7056 12.446 13.5513 12.684 13.348 12.908C13.0045 13.286 12.6259 13.559 12.1983 13.734C11.7777 13.909 11.322 14 10.8312 14C10.1162 14 9.35203 13.832 8.54582 13.489C7.73961 13.146 6.9334 12.684 6.1342 12.103C5.32799 11.515 4.56385 10.864 3.83475 10.143C3.11267 9.415 2.46069 8.652 1.87882 7.854C1.30396 7.056 0.841262 6.258 0.504757 5.467C0.168252 4.669 0 3.906 0 3.178C0 2.702 0.0841261 2.247 0.252378 1.827C0.420631 1.4 0.687031 1.008 1.05859 0.658C1.50726 0.217 1.998 0 2.51678 0C2.71307 0 2.90936 0.042 3.08463 0.126C3.2669 0.21 3.42814 0.336 3.55433 0.518L5.18077 2.807C5.30696 2.982 5.3981 3.143 5.46119 3.297C5.52429 3.444 5.55934 3.591 5.55934 3.724C5.55934 3.892 5.51027 4.06 5.41212 4.221C5.32098 4.382 5.18778 4.55 5.01953 4.718L4.48673 5.271C4.40961 5.348 4.37456 5.439 4.37456 5.551C4.37456 5.607 4.38157 5.656 4.39559 5.712C4.41663 5.768 4.43766 5.81 4.45168 5.852C4.57787 6.083 4.79519 6.384 5.10366 6.748C5.41913 7.112 5.75563 7.483 6.12018 7.854C6.49875 8.225 6.8633 8.568 7.23485 8.883C7.5994 9.191 7.90085 9.401 8.13921 9.527C8.17426 9.541 8.21632 9.562 8.2654 9.583C8.32148 9.604 8.37757 9.611 8.44066 9.611C8.55984 9.611 8.65098 9.569 8.72809 9.492L9.26089 8.967C9.43615 8.792 9.60441 8.659 9.76565 8.575C9.92689 8.477 10.0881 8.428 10.2634 8.428C10.3966 8.428 10.5368 8.456 10.691 8.519C10.8453 8.582 11.0065 8.673 11.1818 8.792L13.5023 10.437C13.6845 10.563 13.8107 10.71 13.8878 10.885C13.9579 11.06 14 11.235 14 11.431Z" fill="#FF0026"/>
</svg>
