<svg width="120" height="87" viewBox="0 0 120 87" fill="none" xmlns="http://www.w3.org/2000/svg">
<g clip-path="url(#clip0_1_137)">
<path opacity="0.97" d="M91.39 0H120V87H0.30997C-0.12003 68.06 0.23997 49.11 0.12997 30.17L2.18997 30.16C2.20997 48.44 2.16997 66.72 2.20997 85.01C40.76 84.99 79.32 84.88 117.87 85.07C117.95 57.42 117.87 29.77 117.91 2.13C109.12 2.11 100.32 2.12 91.52 2.12C91.49 1.59 91.42 0.53 91.39 0Z" fill="#305B6B"/>
<path opacity="0.97" d="M33.93 20.75C35.22 20.75 36.5 20.75 37.78 20.74C37.75 27.19 37.75 33.65 37.77 40.1C44.54 40.13 51.31 40.04 58.07 40.15C58.07 40.99 58.07 42.65 58.07 43.48C50.03 43.54 41.98 43.54 33.93 43.48C33.93 35.9 33.93 28.33 33.93 20.75Z" fill="#305B6B"/>
<path opacity="0.97" d="M44.08 20.74C45.35 20.74 46.61 20.75 47.88 20.75C47.85 26.67 47.83 32.59 47.9 38.51C46.62 38.51 45.34 38.51 44.06 38.52C44.13 32.59 44.11 26.67 44.08 20.74Z" fill="#305B6B"/>
<path opacity="0.97" d="M54.13 20.75C55.44 20.75 56.76 20.75 58.07 20.75C58.07 26.67 58.07 32.59 58.07 38.52C56.75 38.51 55.43 38.51 54.11 38.51C54.18 32.59 54.16 26.67 54.13 20.75Z" fill="#305B6B"/>
<path opacity="0.97" d="M67.5 20.74C71.72 20.73 75.94 20.73 80.16 20.74C80.13 21.56 80.09 23.19 80.06 24.01C75.88 24.13 71.7 24.07 67.52 23.91C67.51 23.12 67.51 21.54 67.5 20.74Z" fill="#305B6B"/>
<path opacity="0.97" d="M96.5799 20.76C97.5499 20.76 99.4799 20.76 100.45 20.76C100.43 28.33 100.42 35.9 100.46 43.47C99.4899 43.48 97.5499 43.48 96.5699 43.48C96.6099 35.91 96.5899 28.33 96.5799 20.76Z" fill="#305B6B"/>
<path opacity="0.97" d="M86.53 31.05C86.71 26.65 90.55 23.79 94.52 22.87C94.69 23.64 95.02 25.17 95.19 25.93C92.55 26.85 89.9 28.86 90.34 32.02C89.85 35.21 92.34 37.52 95.18 38.32C95.05 39.04 94.79 40.48 94.66 41.2C89.65 40.76 85.72 36.11 86.53 31.05Z" fill="#305B6B"/>
<path opacity="0.97" d="M102.48 22.88C106.81 23.78 110.7 27.32 110.52 32.01C110.84 36.81 106.92 40.74 102.32 41.27C102.2 40.52 101.97 39.02 101.86 38.27C104.65 37.46 107.26 35.18 106.75 31.98C107.19 28.82 104.38 26.89 101.8 25.93C101.97 25.17 102.31 23.64 102.48 22.88Z" fill="#305B6B"/>
<path opacity="0.97" d="M67.5 25.55C68.48 25.56 70.44 25.56 71.42 25.56C71.41 26.99 71.4 28.43 71.39 29.86C74.3 29.88 77.21 29.88 80.12 29.89C80.12 30.69 80.11 32.3 80.11 33.1C77.21 33.11 74.3 33.11 71.4 33.12C71.41 36.58 71.4 40.04 71.39 43.51C70.42 43.51 68.47 43.5 67.5 43.5C67.53 37.52 67.52 31.54 67.5 25.55Z" fill="#305B6B"/>
<path opacity="0.97" d="M73.03 40.26C75.79 40.25 78.56 40.25 81.32 40.21C81.35 41.03 81.42 42.68 81.45 43.51C78.61 43.52 75.76 43.52 72.92 43.49C72.95 42.68 73 41.07 73.03 40.26Z" fill="#305B6B"/>
<path opacity="0.97" d="M20.37 52.17C21.61 52.17 22.86 52.17 24.1 52.17C24.19 59.73 24.14 67.29 24.15 74.85C22.89 74.85 21.63 74.84 20.37 74.84C20.38 67.28 20.38 59.73 20.37 52.17Z" fill="#305B6B"/>
<path opacity="0.97" d="M25.79 52.15C29.62 52.16 33.44 52.15 37.27 52.16C37.28 59.73 37.28 67.3 37.27 74.86C35.97 74.85 34.67 74.84 33.38 74.84C33.39 68.4 33.38 61.96 33.39 55.53C30.89 55.52 28.39 55.53 25.89 55.57C25.87 54.43 25.84 53.29 25.79 52.15Z" fill="#305B6B"/>
<path opacity="0.97" d="M44.93 66.94C43.14 60.63 46.72 52.5 53.78 51.81C53.91 52.59 54.16 54.16 54.28 54.94C48.36 56.88 46.63 64.98 50.52 69.58C51.82 71.27 53.98 71.72 55.9 72.34C55.95 73.17 56.05 74.84 56.1 75.68C50.92 75.71 45.83 72.2 44.93 66.94Z" fill="#305B6B"/>
<path opacity="0.97" d="M56.06 51.43C59.07 51.65 62.26 52.32 64.33 54.7C70.64 61.06 67.66 74.18 58.22 75.55C58.08 74.71 57.8 73.04 57.66 72.2C63.53 70.44 65.56 62.7 62.04 57.95C60.76 55.92 58.33 55.35 56.19 54.72C56.16 53.9 56.1 52.26 56.06 51.43Z" fill="#305B6B"/>
<path opacity="0.97" d="M74.94 52.2C78.82 52.42 83.11 51.3 86.66 53.28C90.79 55.64 90.71 62.35 86.73 64.79C84.78 66.05 82.39 66.04 80.16 65.97C80.24 65.29 80.41 63.91 80.49 63.23C82.07 62.56 84.31 62.95 85.37 61.36C86.17 59.37 86.15 56.05 83.57 55.48C80.71 55.05 77.79 55.28 74.91 55.22C74.92 54.47 74.94 52.96 74.94 52.2Z" fill="#305B6B"/>
<path opacity="0.97" d="M92.7 52.16C98.63 52.15 104.55 52.17 110.47 52.15C110.5 52.98 110.55 54.66 110.57 55.5C104.59 55.55 98.62 55.54 92.64 55.5C92.66 54.67 92.69 52.99 92.7 52.16Z" fill="#305B6B"/>
<path opacity="0.97" d="M75.06 56.89C76.31 56.9 77.57 56.91 78.82 56.93C78.86 62.9 78.83 68.88 78.85 74.85C77.54 74.84 76.23 74.82 74.92 74.81C74.98 68.83 74.78 62.86 75.06 56.89Z" fill="#305B6B"/>
<path opacity="0.97" d="M99.6399 57.13C100.94 57.14 102.24 57.15 103.54 57.16C103.53 63.05 103.53 68.94 103.54 74.84C102.24 74.85 100.94 74.85 99.6399 74.86C99.6299 68.95 99.6299 63.04 99.6399 57.13Z" fill="#305B6B"/>
</g>
<defs>
<clipPath id="clip0_1_137">
<rect width="120" height="87" fill="white"/>
</clipPath>
</defs>
</svg>
