<svg width="142" height="43" viewBox="0 0 142 43" fill="none" xmlns="http://www.w3.org/2000/svg">
<path fill-rule="evenodd" clip-rule="evenodd" d="M134 1H8C4.13401 1 1 4.13401 1 8V35C1 38.866 4.13401 42 8 42H134C137.866 42 141 38.866 141 35V8C141 4.13401 137.866 1 134 1ZM8 0C3.58172 0 0 3.58172 0 8V35C0 39.4183 3.58172 43 8 43H134C138.418 43 142 39.4183 142 35V8C142 3.58172 138.418 0 134 0H8Z" fill="#929292"/>
<path d="M22.2717 25.36H27.6117V28H19.5117V14H22.2717V25.36Z" fill="#929292"/>
<path d="M33.7997 14C35.1464 14 36.2797 14.4533 37.1997 15.36C38.1197 16.2666 38.5797 17.38 38.5797 18.7C38.5797 20.02 38.1197 21.1333 37.1997 22.04C36.2797 22.9466 35.1464 23.4 33.7997 23.4H31.3397V28H28.5797V14H33.7997ZM33.7997 20.82C34.3864 20.82 34.873 20.62 35.2597 20.22C35.6464 19.8066 35.8397 19.3 35.8397 18.7C35.8397 18.0866 35.6464 17.58 35.2597 17.18C34.873 16.78 34.3864 16.58 33.7997 16.58H31.3397V20.82H33.7997Z" fill="#929292"/>
<path d="M39.7766 23.2V20.72H47.2766V23.2H39.7766Z" fill="#929292"/>
<path d="M55.9142 28.28C53.8076 28.28 52.0676 27.58 50.6942 26.18C49.3209 24.78 48.6342 23.0533 48.6342 21C48.6342 18.9333 49.3209 17.2066 50.6942 15.82C52.0676 14.42 53.8076 13.72 55.9142 13.72C57.1809 13.72 58.3476 14.02 59.4142 14.62C60.4942 15.2066 61.3342 16.0066 61.9342 17.02L59.5542 18.4C59.2076 17.7733 58.7142 17.2866 58.0742 16.94C57.4342 16.58 56.7142 16.4 55.9142 16.4C54.5542 16.4 53.4542 16.8266 52.6142 17.68C51.7876 18.5333 51.3742 19.64 51.3742 21C51.3742 22.3466 51.7876 23.4466 52.6142 24.3C53.4542 25.1533 54.5542 25.58 55.9142 25.58C56.7142 25.58 57.4342 25.4066 58.0742 25.06C58.7276 24.7 59.2209 24.2133 59.5542 23.6L61.9342 24.98C61.3342 25.9933 60.5009 26.8 59.4342 27.4C58.3676 27.9866 57.1942 28.28 55.9142 28.28Z" fill="#929292"/>
<path d="M70.9897 14H73.7297V28H70.9897V22.2H65.7897V28H63.0297V14H65.7897V19.56H70.9897V14Z" fill="#929292"/>
<path d="M84.7305 28L83.8905 25.48H78.3105L77.4705 28H74.4905L79.3905 14H82.8105L87.7305 28H84.7305ZM79.1905 22.9H83.0305L81.1105 17.18L79.1905 22.9Z" fill="#929292"/>
<path d="M96.7342 14V16.64H92.9542V28H90.1942V16.64H86.4342V14H96.7342Z" fill="#929292"/>
<path d="M98.2628 27.76C97.9295 28.0933 97.5295 28.26 97.0628 28.26C96.5961 28.26 96.1961 28.0933 95.8628 27.76C95.5295 27.4266 95.3628 27.0266 95.3628 26.56C95.3628 26.0933 95.5295 25.6933 95.8628 25.36C96.1961 25.0266 96.5961 24.86 97.0628 24.86C97.5295 24.86 97.9295 25.0266 98.2628 25.36C98.5961 25.6933 98.7628 26.0933 98.7628 26.56C98.7628 27.0266 98.5961 27.4266 98.2628 27.76Z" fill="#929292"/>
<path d="M108.114 28L105.294 23.14H103.194V28H100.434V14H106.034C107.328 14 108.428 14.4533 109.334 15.36C110.241 16.2666 110.694 17.36 110.694 18.64C110.694 19.5066 110.448 20.3133 109.954 21.06C109.461 21.7933 108.808 22.3466 107.994 22.72L111.094 28H108.114ZM103.194 16.58V20.72H106.034C106.554 20.72 107.001 20.52 107.374 20.12C107.748 19.7066 107.934 19.2133 107.934 18.64C107.934 18.0666 107.748 17.58 107.374 17.18C107.001 16.78 106.554 16.58 106.034 16.58H103.194Z" fill="#929292"/>
<path d="M117.242 28.28C115.682 28.28 114.402 27.84 113.402 26.96C112.402 26.08 111.902 24.9 111.902 23.42V14H114.642V23.2C114.642 23.9333 114.849 24.5133 115.262 24.94C115.689 25.3666 116.349 25.58 117.242 25.58C118.135 25.58 118.789 25.3666 119.202 24.94C119.629 24.5133 119.842 23.9333 119.842 23.2V14H122.602V23.42C122.602 24.9 122.102 26.08 121.102 26.96C120.102 27.84 118.815 28.28 117.242 28.28Z" fill="#929292"/>
</svg>
