<svg width="1920" height="35" viewBox="0 0 1920 35" fill="none" xmlns="http://www.w3.org/2000/svg">
<g clip-path="url(#clip0_10_63)">
<path d="M1.00275 24.6225V2.1225H229.626C229.626 2.1225 238.149 20.1225 229.626 24.6225C221.102 29.1225 202.552 37.1225 189.516 29.6225C176.481 22.1225 163.445 18.1225 145.396 25.6225C127.347 33.1225 117.32 33.1225 99.2705 26.1225C81.2213 19.1225 70.5182 21.3821 56.6544 28.6225C42.7906 35.8629 35.0956 33.9646 20.556 28.6225C6.01641 23.2804 1.00275 24.6225 1.00275 24.6225Z" fill="white"/>
<path d="M0.501373 24.6225C0.835617 24.6225 1.16986 24.6225 1.50411 24.6225C1.50411 17.1225 1.50411 9.6225 1.50411 2.1225L1.00274 2.6225C2.04583 2.6225 3.08893 2.6225 4.13203 2.6225C14.1655 2.6225 24.199 2.6225 34.2325 2.6225C61.6764 2.6225 89.1202 2.6225 116.564 2.6225C143.07 2.6225 169.575 2.6225 196.081 2.6225C207.263 2.6225 218.444 2.6225 229.626 2.6225L229.172 2.336C230.805 5.98322 232.114 9.87727 232.691 13.8306C233.249 17.6487 232.957 22.3707 229.391 24.1806C223.772 27.1321 217.821 29.5805 211.639 31.0246C204.365 32.7149 196.295 32.9594 189.767 29.1894C176.75 20.8673 159.46 18.4757 145.204 25.161C130.793 32.1021 114.019 32.2538 99.4522 25.6565C85.797 19.5486 69.2342 20.4411 56.4217 28.1796C47.1621 33.6539 35.8991 33.9619 25.9616 30.0092C24.2081 29.4194 22.47 28.7926 20.7294 28.1533C14.3705 25.9645 7.97165 23.5375 0.872763 24.1396C0.959414 24.4615 1.04607 24.7835 1.13271 25.1054C7.48966 24.5736 14.155 26.9061 20.3826 29.0917C22.1276 29.7325 23.8734 30.3621 25.6414 30.9568C35.5887 34.9721 47.5606 34.646 56.887 29.0654C69.6496 21.4201 85.5112 20.5762 99.0888 26.5885C113.673 33.2561 131.158 33.0982 145.589 26.084C159.658 19.5327 176.321 21.8285 189.266 30.0556C196.133 34.0122 204.466 33.7145 211.865 31.9987C218.161 30.5271 224.177 28.0487 229.86 25.0644C234.07 22.8659 234.244 17.591 233.685 13.6926C233.081 9.58837 231.762 5.67093 230.079 1.90899L229.944 1.6225H229.626C218.444 1.6225 207.263 1.6225 196.081 1.6225C169.575 1.6225 143.07 1.6225 116.564 1.6225C89.1202 1.6225 61.6764 1.6225 34.2325 1.6225C24.199 1.6225 14.1655 1.6225 4.13203 1.6225C3.08893 1.6225 2.04583 1.6225 1.00274 1.6225H0.501373V2.1225C0.501373 9.6225 0.501373 17.1225 0.501373 24.6225Z" fill="white"/>
<path d="M164.448 20.6225V2.1225H393.071C393.071 2.1225 401.594 19.1225 393.071 23.6225C384.548 28.1225 365.997 36.1225 352.962 28.6225C339.926 21.1225 326.891 18.1225 308.842 25.6225C290.792 33.1225 280.765 33.1225 262.716 26.1225C244.667 19.1225 233.964 21.3821 220.1 28.6225C206.236 35.8629 197.538 28.4646 182.999 23.1225C168.459 17.7804 164.448 20.6225 164.448 20.6225Z" fill="white"/>
<path d="M163.947 20.6225C164.281 20.6225 164.616 20.6225 164.949 20.6225C164.949 14.4558 164.949 8.28917 164.949 2.1225L164.448 2.6225C166.783 2.6225 169.093 2.6225 171.376 2.6225C181.327 2.6225 191.269 2.6225 201.212 2.6225C228.41 2.6225 255.6 2.6225 282.795 2.6225C309.063 2.6225 335.304 2.6225 361.603 2.6225C372.087 2.6225 382.573 2.6225 393.071 2.6225L392.623 2.34611C394.264 5.81366 395.584 9.53457 396.15 13.3262C396.719 17.0015 396.283 21.4707 392.836 23.1806C386.523 26.4893 379.811 29.1858 372.808 30.4982C366.212 31.7237 359.047 31.5683 353.212 28.1894C340.113 19.8121 322.773 18.6123 308.649 25.161C294.239 32.1021 277.464 32.2538 262.897 25.6565C249.242 19.5486 232.68 20.4411 219.867 28.1796C210.116 34.1556 198.8 29.4991 189.106 25.0317C187.152 24.1967 185.177 23.3895 183.172 22.6533C177.154 20.6923 170.884 17.9767 164.157 20.2149C164.351 20.4866 164.545 20.7584 164.739 21.0301C170.298 19.1973 176.996 21.5888 182.825 23.5917C184.808 24.3197 186.766 25.1199 188.712 25.951C198.238 30.3689 210.255 35.2818 220.332 29.0654C233.095 21.4201 248.956 20.5762 262.534 26.5885C277.118 33.2561 294.604 33.0982 309.034 26.084C323.006 19.6504 339.732 20.8013 352.711 29.0556C358.847 32.6028 366.265 32.729 372.989 31.4816C380.137 30.1407 386.92 27.4095 393.306 24.0644C397.352 22.0183 397.73 16.9467 397.143 13.1853C396.547 9.23192 395.216 5.4863 393.519 1.89889L393.381 1.6225H393.071C382.573 1.6225 372.087 1.6225 361.603 1.6225C335.304 1.6225 309.063 1.6225 282.795 1.6225C255.6 1.6225 228.41 1.6225 201.212 1.6225C191.269 1.6225 181.327 1.6225 171.376 1.6225C169.093 1.6225 166.783 1.6225 164.448 1.6225H163.947V2.1225C163.947 8.28917 163.947 14.4558 163.947 20.6225Z" fill="white"/>
</g>
<path d="M1510 22L1514 1.1225H1742.22C1742.22 1.1225 1750.73 18.3647 1742.22 22.9288C1729 30.0198 1715.19 35.6069 1702.18 28C1689.17 20.3932 1676.16 17.3504 1658.14 24.9573C1640.12 32.5641 1630.11 32.5641 1612.09 25.4644C1594.08 18.3647 1583.39 20.6565 1569.55 28C1555.71 35.3436 1547.03 27.8399 1532.52 22.4217C1518 17.0035 1510 22 1510 22Z" fill="white"/>
<g clip-path="url(#clip1_10_63)">
<path d="M729.997 24V1.06061H501.374C501.374 1.06061 492.851 20.1515 501.374 24.9242C509.898 29.697 528.448 38.1818 541.484 30.2273C554.519 22.2727 567.555 18.0303 585.604 25.9848C603.653 33.9394 613.68 33.9394 631.729 26.5152C649.779 19.0909 660.482 21.4875 674.346 29.1667C688.209 36.8459 695.904 34.8325 710.444 29.1667C724.984 23.5008 729.997 24 729.997 24Z" fill="white"/>
<path d="M566.552 20.6818V1.06061H337.929C337.929 1.06061 329.406 19.0909 337.929 23.8636C346.452 28.6364 365.003 37.1212 378.038 29.1667C391.074 21.2121 404.109 18.0303 422.158 25.9849C440.208 33.9394 450.235 33.9394 468.284 26.5152C486.333 19.0909 497.036 21.4875 510.9 29.1667C524.764 36.8459 533.462 28.9992 548.001 23.3333C562.541 17.6675 566.552 20.6818 566.552 20.6818Z" fill="white"/>
<path d="M567.053 20.6818C566.719 20.6818 566.384 20.6818 566.051 20.6818C566.051 14.1414 566.051 7.60101 566.051 1.06061L566.552 1.59091C564.217 1.59091 561.907 1.59091 559.624 1.59091C549.673 1.59091 539.731 1.59091 529.788 1.59091C502.59 1.59091 475.4 1.59091 448.205 1.59091C421.937 1.59091 395.696 1.59091 369.397 1.59091C358.913 1.59091 348.427 1.59091 337.929 1.59091L338.377 1.29777C336.736 4.97547 335.416 8.92189 334.85 12.9433C334.281 16.8414 334.717 21.5814 338.164 23.395C344.477 26.9042 351.189 29.7641 358.192 31.156C364.788 32.4558 371.953 32.291 377.788 28.7073C390.887 19.8223 408.227 18.5498 422.351 25.4954C436.761 32.8572 453.536 33.018 468.103 26.0209C481.758 19.5428 498.32 20.4894 511.133 28.6969C520.884 35.0351 532.2 30.0964 541.894 25.3582C543.848 24.4726 545.823 23.6165 547.828 22.8357C553.846 20.7559 560.116 17.8757 566.843 20.2495C566.649 20.5377 566.455 20.826 566.261 21.1141C560.702 19.1702 554.004 21.7067 548.175 23.831C546.192 24.6031 544.234 25.4518 542.288 26.3333C532.762 31.0189 520.745 36.2296 510.668 29.6364C497.905 21.5278 482.044 20.6327 468.466 27.0094C453.882 34.0811 436.396 33.9136 421.966 26.4743C407.994 19.6508 391.268 20.8715 378.289 29.626C372.153 33.3882 364.735 33.522 358.011 32.199C350.863 30.7769 344.08 27.8802 337.694 24.3323C333.648 22.1622 333.27 16.7832 333.857 12.7939C334.453 8.6009 335.784 4.62827 337.481 0.823448L337.619 0.530304H337.929C348.427 0.530304 358.913 0.530304 369.397 0.530304C395.696 0.530304 421.937 0.530304 448.205 0.530304C475.4 0.530304 502.59 0.530304 529.788 0.530304C539.731 0.530304 549.673 0.530304 559.624 0.530304C561.907 0.530304 564.217 0.530304 566.552 0.530304H567.053V1.06061C567.053 7.60101 567.053 14.1414 567.053 20.6818Z" fill="white"/>
<path d="M567.053 20.6818C566.719 20.6818 566.384 20.6818 566.051 20.6818C566.051 14.1414 566.051 7.60101 566.051 1.06061L566.552 1.59091C564.217 1.59091 561.907 1.59091 559.624 1.59091C549.673 1.59091 539.731 1.59091 529.788 1.59091C502.59 1.59091 475.4 1.59091 448.205 1.59091C421.937 1.59091 395.696 1.59091 369.397 1.59091C358.913 1.59091 348.427 1.59091 337.929 1.59091L338.377 1.29777C336.736 4.97547 335.416 8.92189 334.85 12.9433C334.281 16.8414 334.717 21.5814 338.164 23.395C344.477 26.9042 351.189 29.7641 358.192 31.156C364.788 32.4558 371.953 32.291 377.788 28.7073C390.887 19.8223 408.227 18.5498 422.351 25.4954C436.761 32.8572 453.536 33.018 468.103 26.0209C481.758 19.5428 498.32 20.4894 511.133 28.6969C520.884 35.0351 532.2 30.0964 541.894 25.3582C543.848 24.4726 545.823 23.6165 547.828 22.8357C553.846 20.7559 560.116 17.8757 566.843 20.2495C566.649 20.5377 566.455 20.826 566.261 21.1141C560.702 19.1702 554.004 21.7067 548.175 23.831C546.192 24.6031 544.234 25.4518 542.288 26.3333C532.762 31.0189 520.745 36.2296 510.668 29.6364C497.905 21.5278 482.044 20.6327 468.466 27.0094C453.882 34.0811 436.396 33.9136 421.966 26.4743C407.994 19.6508 391.268 20.8715 378.289 29.626C372.153 33.3882 364.735 33.522 358.011 32.199C350.863 30.7769 344.08 27.8802 337.694 24.3323C333.648 22.1622 333.27 16.7832 333.857 12.7939C334.453 8.6009 335.784 4.62827 337.481 0.823448L337.619 0.530304H337.929C348.427 0.530304 358.913 0.530304 369.397 0.530304C395.696 0.530304 421.937 0.530304 448.205 0.530304C475.4 0.530304 502.59 0.530304 529.788 0.530304C539.731 0.530304 549.673 0.530304 559.624 0.530304C561.907 0.530304 564.217 0.530304 566.552 0.530304H567.053V1.06061C567.053 7.60101 567.053 14.1414 567.053 20.6818Z" fill="white"/>
</g>
<path d="M1920 19.8861V1.1225H1690.8C1690.8 1.1225 1682.25 18.3647 1690.8 22.9288C1699.34 27.4929 1717.94 35.6069 1731.01 28C1744.08 20.3932 1757.15 17.3504 1775.24 24.9573C1793.34 32.5641 1803.39 32.5641 1821.48 25.4644C1839.58 18.3647 1850.31 20.6565 1864.21 28C1878.11 35.3436 1886.83 27.8399 1901.4 22.4217C1915.98 17.0035 1920 19.8861 1920 19.8861Z" fill="white"/>
<path d="M1118 24.5V1.1225H1347.2C1347.2 1.1225 1355.75 19.5575 1347.2 24.1662C1338.66 28.7749 1320.06 36.9683 1306.99 29.287C1293.92 21.6058 1280.85 17.5091 1262.76 25.1904C1244.66 32.8716 1234.61 32.8716 1216.52 25.7024C1198.42 18.5333 1187.69 20.8475 1173.79 28.2629C1159.89 35.6782 1152.18 33.734 1137.6 28.2629C1124.5 22 1118 24.5 1118 24.5Z" fill="white"/>
<path d="M1286 19.8041V1H1514.62C1514.62 1 1521.13 16.2466 1512.61 20.8206C1504.09 25.3945 1487.54 35.5589 1474.51 27.9356C1461.47 20.3123 1448.44 17.263 1430.39 24.8863C1412.34 32.5096 1402.31 32.5096 1384.27 25.3945C1366.22 18.2795 1354.86 19.6406 1341 27C1327.14 34.3594 1319.09 27.7751 1304.55 22.3452C1290.01 16.9153 1286 19.8041 1286 19.8041Z" fill="white"/>
<path d="M730 24L729 1H958.202C958.202 1 966.045 19.2472 957.5 24C948.955 28.7528 931.06 37.9659 917.991 30.0447C904.923 22.1234 891.854 17.8987 873.759 25.82C855.664 33.7413 845.612 33.7413 827.517 26.3481C809.422 18.9549 798.692 21.3414 784.793 28.9885C770.894 36.6356 763.179 34.6307 748.603 28.9885C734.026 23.3463 730 24 730 24Z" fill="white"/>
<path d="M890 21.0577V1H1119.17C1119.17 1 1133 23 1119.17 24.3103C1105.33 25.6207 1092.03 37.8629 1078.96 29.7313C1065.9 21.5998 1052.83 18.3472 1034.74 26.4787C1016.64 34.6103 1006.59 34.6103 988.502 27.0208C970.409 19.4314 959.681 21.8813 945.784 29.7313C931.887 37.5814 923.169 29.5602 908.595 23.7682C894.02 17.9763 890 21.0577 890 21.0577Z" fill="white"/>
<defs>
<clipPath id="clip0_10_63">
<rect width="367" height="33" fill="white" transform="translate(0 1.1225)"/>
</clipPath>
<clipPath id="clip1_10_63">
<rect width="367" height="35" fill="white" transform="matrix(-1 0 0 1 731 0)"/>
</clipPath>
</defs>
</svg>
